<mxfile host="65bd71144e">
    <diagram id="yMJIn_P8YUf_Fbye5G31" name="Page-1">
        <mxGraphModel dx="1130" dy="787" grid="1" gridSize="10" guides="1" tooltips="1" connect="1" arrows="1" fold="1" page="1" pageScale="1" pageWidth="850" pageHeight="1100" math="0" shadow="0">
            <root>
                <mxCell id="0"/>
                <mxCell id="1" parent="0"/>
                <mxCell id="2" value="Return Kop" style="whiteSpace=wrap;html=1;" vertex="1" parent="1">
                    <mxGeometry y="880" width="840" height="60" as="geometry"/>
                </mxCell>
                <mxCell id="3" value="kop" style="whiteSpace=wrap;html=1;" vertex="1" parent="1">
                    <mxGeometry x="365" y="190" width="120" height="60" as="geometry"/>
                </mxCell>
                <mxCell id="6" value="koffiebonen = 0" style="whiteSpace=wrap;html=1;" vertex="1" parent="1">
                    <mxGeometry y="700" width="120" height="60" as="geometry"/>
                </mxCell>
                <mxCell id="7" value="keuze = ?" style="whiteSpace=wrap;html=1;" vertex="1" parent="1">
                    <mxGeometry y="490" width="840" height="90" as="geometry"/>
                </mxCell>
                <mxCell id="28" value="" style="edgeStyle=none;html=1;" edge="1" parent="1">
                    <mxGeometry relative="1" as="geometry">
                        <mxPoint x="720" y="610" as="sourcePoint"/>
                        <mxPoint x="720" y="610" as="targetPoint"/>
                    </mxGeometry>
                </mxCell>
                <mxCell id="18" value="Water = 100" style="whiteSpace=wrap;html=1;" vertex="1" parent="1">
                    <mxGeometry y="580" width="120" height="60" as="geometry"/>
                </mxCell>
                <mxCell id="19" value="Melk = 0" style="whiteSpace=wrap;html=1;" vertex="1" parent="1">
                    <mxGeometry y="640" width="120" height="60" as="geometry"/>
                </mxCell>
                <mxCell id="20" value="Heet water" style="text;html=1;align=center;verticalAlign=middle;resizable=0;points=[];autosize=1;strokeColor=none;fillColor=none;" vertex="1" parent="1">
                    <mxGeometry y="550" width="80" height="30" as="geometry"/>
                </mxCell>
                <mxCell id="22" value="koffie" style="text;html=1;align=center;verticalAlign=middle;resizable=0;points=[];autosize=1;strokeColor=none;fillColor=none;" vertex="1" parent="1">
                    <mxGeometry x="120" y="550" width="50" height="30" as="geometry"/>
                </mxCell>
                <mxCell id="23" value="cappucino" style="text;html=1;align=center;verticalAlign=middle;resizable=0;points=[];autosize=1;strokeColor=none;fillColor=none;" vertex="1" parent="1">
                    <mxGeometry x="225" y="550" width="80" height="30" as="geometry"/>
                </mxCell>
                <mxCell id="24" value="espresso" style="text;html=1;align=center;verticalAlign=middle;resizable=0;points=[];autosize=1;strokeColor=none;fillColor=none;" vertex="1" parent="1">
                    <mxGeometry x="345" y="550" width="80" height="30" as="geometry"/>
                </mxCell>
                <mxCell id="25" value="latte machiato" style="text;html=1;align=center;verticalAlign=middle;resizable=0;points=[];autosize=1;strokeColor=none;fillColor=none;" vertex="1" parent="1">
                    <mxGeometry x="480" y="550" width="100" height="30" as="geometry"/>
                </mxCell>
                <mxCell id="26" value="warme chocolade" style="text;html=1;align=center;verticalAlign=middle;resizable=0;points=[];autosize=1;strokeColor=none;fillColor=none;" vertex="1" parent="1">
                    <mxGeometry x="720" y="550" width="120" height="30" as="geometry"/>
                </mxCell>
                <mxCell id="29" value="wiener melange" style="text;html=1;align=center;verticalAlign=middle;resizable=0;points=[];autosize=1;strokeColor=none;fillColor=none;" vertex="1" parent="1">
                    <mxGeometry x="600" y="550" width="110" height="30" as="geometry"/>
                </mxCell>
                <mxCell id="33" value="Water" style="whiteSpace=wrap;html=1;" vertex="1" parent="1">
                    <mxGeometry x="240" y="580" width="120" height="60" as="geometry"/>
                </mxCell>
                <mxCell id="34" value="Melk" style="whiteSpace=wrap;html=1;" vertex="1" parent="1">
                    <mxGeometry x="120" y="640" width="120" height="60" as="geometry"/>
                </mxCell>
                <mxCell id="35" value="koffiebonen" style="whiteSpace=wrap;html=1;" vertex="1" parent="1">
                    <mxGeometry x="120" y="700" width="120" height="60" as="geometry"/>
                </mxCell>
                <mxCell id="36" value="Water" style="whiteSpace=wrap;html=1;" vertex="1" parent="1">
                    <mxGeometry x="360" y="580" width="120" height="60" as="geometry"/>
                </mxCell>
                <mxCell id="37" value="Melk" style="whiteSpace=wrap;html=1;" vertex="1" parent="1">
                    <mxGeometry x="240" y="640" width="120" height="60" as="geometry"/>
                </mxCell>
                <mxCell id="38" value="koffiebonen" style="whiteSpace=wrap;html=1;" vertex="1" parent="1">
                    <mxGeometry x="240" y="700" width="120" height="60" as="geometry"/>
                </mxCell>
                <mxCell id="39" value="Water" style="whiteSpace=wrap;html=1;" vertex="1" parent="1">
                    <mxGeometry x="480" y="580" width="120" height="60" as="geometry"/>
                </mxCell>
                <mxCell id="40" value="Melk" style="whiteSpace=wrap;html=1;" vertex="1" parent="1">
                    <mxGeometry x="360" y="640" width="120" height="60" as="geometry"/>
                </mxCell>
                <mxCell id="41" value="koffiebonen" style="whiteSpace=wrap;html=1;" vertex="1" parent="1">
                    <mxGeometry x="360" y="700" width="120" height="60" as="geometry"/>
                </mxCell>
                <mxCell id="42" value="Water" style="whiteSpace=wrap;html=1;" vertex="1" parent="1">
                    <mxGeometry x="600" y="580" width="120" height="60" as="geometry"/>
                </mxCell>
                <mxCell id="43" value="Melk" style="whiteSpace=wrap;html=1;" vertex="1" parent="1">
                    <mxGeometry x="480" y="640" width="120" height="60" as="geometry"/>
                </mxCell>
                <mxCell id="44" value="koffiebonen" style="whiteSpace=wrap;html=1;" vertex="1" parent="1">
                    <mxGeometry x="480" y="700" width="120" height="60" as="geometry"/>
                </mxCell>
                <mxCell id="45" value="Water" style="whiteSpace=wrap;html=1;" vertex="1" parent="1">
                    <mxGeometry x="720" y="580" width="120" height="60" as="geometry"/>
                </mxCell>
                <mxCell id="46" value="Melk" style="whiteSpace=wrap;html=1;" vertex="1" parent="1">
                    <mxGeometry x="600" y="640" width="120" height="60" as="geometry"/>
                </mxCell>
                <mxCell id="47" value="koffiebonen" style="whiteSpace=wrap;html=1;" vertex="1" parent="1">
                    <mxGeometry x="600" y="700" width="120" height="60" as="geometry"/>
                </mxCell>
                <mxCell id="49" value="Melk" style="whiteSpace=wrap;html=1;" vertex="1" parent="1">
                    <mxGeometry x="720" y="640" width="120" height="60" as="geometry"/>
                </mxCell>
                <mxCell id="50" value="koffiebonen" style="whiteSpace=wrap;html=1;" vertex="1" parent="1">
                    <mxGeometry x="720" y="700" width="120" height="60" as="geometry"/>
                </mxCell>
                <mxCell id="51" value="cacao = 0" style="whiteSpace=wrap;html=1;" vertex="1" parent="1">
                    <mxGeometry y="760" width="120" height="60" as="geometry"/>
                </mxCell>
                <mxCell id="53" value="cacao = 0" style="whiteSpace=wrap;html=1;" vertex="1" parent="1">
                    <mxGeometry x="240" y="760" width="120" height="60" as="geometry"/>
                </mxCell>
                <mxCell id="54" value="cacao = 0" style="whiteSpace=wrap;html=1;" vertex="1" parent="1">
                    <mxGeometry x="360" y="760" width="120" height="60" as="geometry"/>
                </mxCell>
                <mxCell id="55" value="cacao = 0" style="whiteSpace=wrap;html=1;" vertex="1" parent="1">
                    <mxGeometry x="480" y="760" width="120" height="60" as="geometry"/>
                </mxCell>
                <mxCell id="56" value="cacao = 100" style="whiteSpace=wrap;html=1;" vertex="1" parent="1">
                    <mxGeometry x="600" y="760" width="120" height="60" as="geometry"/>
                </mxCell>
                <mxCell id="57" value="cacao = 100" style="whiteSpace=wrap;html=1;" vertex="1" parent="1">
                    <mxGeometry x="720" y="760" width="120" height="60" as="geometry"/>
                </mxCell>
                <mxCell id="59" value="drank maken(Sterkte, grootte,water, melk, koffiebonen,cacao)" style="whiteSpace=wrap;html=1;" vertex="1" parent="1">
                    <mxGeometry y="820" width="120" height="60" as="geometry"/>
                </mxCell>
                <mxCell id="60" value="drank maken(water, melk, koffiebonen,cacao)" style="whiteSpace=wrap;html=1;" vertex="1" parent="1">
                    <mxGeometry x="120" y="820" width="120" height="60" as="geometry"/>
                </mxCell>
                <mxCell id="61" value="drank maken(water, melk, koffiebonen,cacao)" style="whiteSpace=wrap;html=1;" vertex="1" parent="1">
                    <mxGeometry x="240" y="820" width="120" height="60" as="geometry"/>
                </mxCell>
                <mxCell id="62" value="drank maken(water, melk, koffiebonen,cacao)" style="whiteSpace=wrap;html=1;" vertex="1" parent="1">
                    <mxGeometry x="360" y="820" width="120" height="60" as="geometry"/>
                </mxCell>
                <mxCell id="63" value="drank maken(water, melk, koffiebonen,cacao)" style="whiteSpace=wrap;html=1;" vertex="1" parent="1">
                    <mxGeometry x="480" y="820" width="120" height="60" as="geometry"/>
                </mxCell>
                <mxCell id="64" value="drank maken(water, melk, koffiebonen,cacao)" style="whiteSpace=wrap;html=1;" vertex="1" parent="1">
                    <mxGeometry x="600" y="820" width="120" height="60" as="geometry"/>
                </mxCell>
                <mxCell id="65" value="drank maken(water, melk, koffiebonen,cacao)" style="whiteSpace=wrap;html=1;" vertex="1" parent="1">
                    <mxGeometry x="720" y="820" width="120" height="60" as="geometry"/>
                </mxCell>
                <mxCell id="68" value="drank maken(sterkte,grootte,water, melk, koffiebonen,cacao)" style="text;strokeColor=none;align=center;fillColor=none;html=1;verticalAlign=middle;whiteSpace=wrap;rounded=0;" vertex="1" parent="1">
                    <mxGeometry x="130" y="970" width="290" height="30" as="geometry"/>
                </mxCell>
                <mxCell id="69" value="sterkte" style="whiteSpace=wrap;html=1;" vertex="1" parent="1">
                    <mxGeometry x="298" y="250" width="255" height="60" as="geometry"/>
                </mxCell>
                <mxCell id="70" value="zwak" style="whiteSpace=wrap;html=1;" vertex="1" parent="1">
                    <mxGeometry x="298" y="310" width="85" height="60" as="geometry"/>
                </mxCell>
                <mxCell id="71" value="middel" style="whiteSpace=wrap;html=1;" vertex="1" parent="1">
                    <mxGeometry x="383" y="430" width="85" height="60" as="geometry"/>
                </mxCell>
                <mxCell id="72" style="edgeStyle=none;html=1;exitX=1;exitY=0.5;exitDx=0;exitDy=0;entryX=1;entryY=0.75;entryDx=0;entryDy=0;" edge="1" parent="1" source="71" target="71">
                    <mxGeometry relative="1" as="geometry"/>
                </mxCell>
                <mxCell id="73" value="sterk" style="whiteSpace=wrap;html=1;" vertex="1" parent="1">
                    <mxGeometry x="468" y="430" width="85" height="60" as="geometry"/>
                </mxCell>
                <mxCell id="74" value="sterkte = ?" style="whiteSpace=wrap;html=1;" vertex="1" parent="1">
                    <mxGeometry x="298" y="250" width="255" height="60" as="geometry"/>
                </mxCell>
                <mxCell id="75" value="zwak" style="whiteSpace=wrap;html=1;" vertex="1" parent="1">
                    <mxGeometry x="298" y="310" width="85" height="60" as="geometry"/>
                </mxCell>
                <mxCell id="76" value="Grootte = ?&amp;nbsp;" style="whiteSpace=wrap;html=1;" vertex="1" parent="1">
                    <mxGeometry x="298" y="370" width="255" height="60" as="geometry"/>
                </mxCell>
                <mxCell id="77" value="zwak" style="whiteSpace=wrap;html=1;" vertex="1" parent="1">
                    <mxGeometry x="298" y="430" width="85" height="60" as="geometry"/>
                </mxCell>
                <mxCell id="78" value="sterk" style="whiteSpace=wrap;html=1;" vertex="1" parent="1">
                    <mxGeometry x="468" y="310" width="85" height="60" as="geometry"/>
                </mxCell>
                <mxCell id="79" value="middel" style="whiteSpace=wrap;html=1;" vertex="1" parent="1">
                    <mxGeometry x="383" y="310" width="85" height="60" as="geometry"/>
                </mxCell>
                <mxCell id="80" value="Water" style="whiteSpace=wrap;html=1;" vertex="1" parent="1">
                    <mxGeometry x="120" y="580" width="120" height="60" as="geometry"/>
                </mxCell>
                <mxCell id="81" value="cacao = 0" style="whiteSpace=wrap;html=1;" vertex="1" parent="1">
                    <mxGeometry x="120" y="760" width="120" height="60" as="geometry"/>
                </mxCell>
                <mxCell id="82" value="regelen juiste grootte" style="whiteSpace=wrap;html=1;" vertex="1" parent="1">
                    <mxGeometry x="140" y="1060" width="280" height="60" as="geometry"/>
                </mxCell>
                <mxCell id="83" value="return drank" style="whiteSpace=wrap;html=1;" vertex="1" parent="1">
                    <mxGeometry x="140" y="1180" width="280" height="60" as="geometry"/>
                </mxCell>
                <mxCell id="85" value="regelen juiste sterkte" style="whiteSpace=wrap;html=1;" vertex="1" parent="1">
                    <mxGeometry x="140" y="1000" width="280" height="60" as="geometry"/>
                </mxCell>
                <mxCell id="86" value="regelen ingredienten &amp;amp; temperatuur" style="whiteSpace=wrap;html=1;" vertex="1" parent="1">
                    <mxGeometry x="140" y="1120" width="280" height="60" as="geometry"/>
                </mxCell>
                <mxCell id="87" value="" style="edgeStyle=none;orthogonalLoop=1;jettySize=auto;html=1;endArrow=none;endFill=0;exitX=0;exitY=0;exitDx=0;exitDy=0;entryX=0.5;entryY=0;entryDx=0;entryDy=0;" edge="1" parent="1" source="7" target="36">
                    <mxGeometry width="100" relative="1" as="geometry">
                        <mxPoint x="640" y="230" as="sourcePoint"/>
                        <mxPoint x="740" y="230" as="targetPoint"/>
                        <Array as="points"/>
                    </mxGeometry>
                </mxCell>
                <mxCell id="88" value="" style="edgeStyle=none;orthogonalLoop=1;jettySize=auto;html=1;endArrow=none;endFill=0;exitX=0.5;exitY=0;exitDx=0;exitDy=0;entryX=1;entryY=1;entryDx=0;entryDy=0;" edge="1" parent="1" source="71" target="78">
                    <mxGeometry width="100" relative="1" as="geometry">
                        <mxPoint x="650" y="240" as="sourcePoint"/>
                        <mxPoint x="750" y="240" as="targetPoint"/>
                        <Array as="points"/>
                    </mxGeometry>
                </mxCell>
                <mxCell id="89" value="" style="edgeStyle=none;orthogonalLoop=1;jettySize=auto;html=1;endArrow=none;endFill=0;exitX=0;exitY=1;exitDx=0;exitDy=0;entryX=0.5;entryY=1;entryDx=0;entryDy=0;" edge="1" parent="1" source="75" target="76">
                    <mxGeometry width="100" relative="1" as="geometry">
                        <mxPoint x="660" y="250" as="sourcePoint"/>
                        <mxPoint x="760" y="250" as="targetPoint"/>
                        <Array as="points"/>
                    </mxGeometry>
                </mxCell>
                <mxCell id="90" value="" style="edgeStyle=none;orthogonalLoop=1;jettySize=auto;html=1;endArrow=none;endFill=0;exitX=0.5;exitY=1;exitDx=0;exitDy=0;entryX=1;entryY=0;entryDx=0;entryDy=0;" edge="1" parent="1" source="74" target="74">
                    <mxGeometry width="100" relative="1" as="geometry">
                        <mxPoint x="670" y="260" as="sourcePoint"/>
                        <mxPoint x="770" y="260" as="targetPoint"/>
                        <Array as="points"/>
                    </mxGeometry>
                </mxCell>
                <mxCell id="91" value="" style="edgeStyle=none;orthogonalLoop=1;jettySize=auto;html=1;endArrow=none;endFill=0;exitX=0;exitY=0;exitDx=0;exitDy=0;entryX=0.5;entryY=1;entryDx=0;entryDy=0;" edge="1" parent="1" source="74" target="74">
                    <mxGeometry width="100" relative="1" as="geometry">
                        <mxPoint x="680" y="270" as="sourcePoint"/>
                        <mxPoint x="780" y="270" as="targetPoint"/>
                        <Array as="points"/>
                    </mxGeometry>
                </mxCell>
                <mxCell id="92" value="" style="edgeStyle=none;orthogonalLoop=1;jettySize=auto;html=1;endArrow=none;endFill=0;exitX=0.5;exitY=1;exitDx=0;exitDy=0;entryX=1;entryY=0;entryDx=0;entryDy=0;" edge="1" parent="1" source="7" target="7">
                    <mxGeometry width="100" relative="1" as="geometry">
                        <mxPoint x="650" y="240" as="sourcePoint"/>
                        <mxPoint x="750" y="240" as="targetPoint"/>
                        <Array as="points"/>
                    </mxGeometry>
                </mxCell>
            </root>
        </mxGraphModel>
    </diagram>
</mxfile>